<?xml version="1.0" encoding="UTF-8" standalone="no"?>
<svg
   version="1.0"
   width="2000"
   height="400"
   viewBox="0 0 2000 400"
   preserveAspectRatio="xMidYMid"
   id="svg19"
   xmlns="http://www.w3.org/2000/svg"
   xmlns:svg="http://www.w3.org/2000/svg"
   xmlns:bx="https://boxy-svg.com">
  <defs
     id="defs1">
    <bx:guide
       x="767.2370883813065"
       y="423.7335176186038"
       angle="0" />
    <bx:guide
       x="823.412"
       y="431.441"
       angle="0" />
  </defs>
  <g
     transform="matrix(0.57327969,0,0,0.57327969,-212.48427,-192.20527)"
     id="g19">
    <g
       fill="#f6f6f7"
       id="g5">
      <path
         style="fill:#ffffff"
         d="m 768.463,407.364 c 0,0 0.836,15.474 0.697,15.614 -0.139,0.14 21.051,-2.928 21.051,-2.928 l 30.81,-3.067 -0.418,-23.142 z"
         id="path1" />
      <path
         style="fill:#ffffff"
         d="m 743.895,411.145 c 0,0 -174.408,-41.618 -270.874,40.895 -96.466,82.513 56.773,-66.154 56.773,-66.154 l 155.404,-25.26 68.32,20.929 z"
         id="path2" />
      <path
         d="m 624.7,503.3 c -0.4,-2 -0.4,-10.9 0,-19.7 l 0.5,-16.1 4.2,-4.3 c 3.5,-3.6 4.2,-4 4.8,-2.5 0.3,1 0.7,9.9 0.7,19.8 l 0.1,18 -3.3,3 c -6.3,5.9 -6.4,5.9 -7,1.8 z"
         style="fill:#ffffff"
         id="path3" />
      <path
         style="fill:#ffffff"
         d="m 882.788,369.99 -6.592,19.085 h -23.685 v 72.778 H 838.937 L 838.39,371.28 Z"
         id="path4" />
      <path
         style="fill:#ffffff"
         d="m 641.769,530.431 22.383,-1.178 -1.178,464.097 -41.232,-7.658 z"
         id="path5" />
    </g>
    <g
       fill="#afb2b4"
       id="g9"
       style="fill:#63a9f5;fill-opacity:1">
      <path
         d="m 661.604,991.145 c -1.022,-1.076 -8.218,-9.716 -8.218,-9.716 -4.588,-3.321 -5.918,-11.508 -5.918,-11.508 -7.79,-11.382 10.157,-429.595 10.557,-439.395 L 663.4,541.7 c 7.7,0.3 14.2,0.6 14.2,0.7 0.2,0.2 1.9,370.7 1.8,400.1 -0.1,31.1 -0.6,35.2 -5,40.4 -2.8,3.4 -3.553,11.412 -12.553,12.412 -4.7,0.5 2.357,-1.367 -0.243,-4.167 z"
         style="fill:#63a9f5;fill-opacity:1"
         id="path6" />
      <path
         d="m 621.13,510.27 c 0,-2.9 13.893,-12.57 13.293,-29.97 -0.3,-9.8 -0.507,-36.292 -2.107,-39.392 C 626.816,430.108 610.8,426 585.2,426 c -25.9,0 -52.8,4.3 -75.5,12 -14.7,5 -30.249,8.257 -30.249,8.257 C 584.436,361.815 744,404.3 744,404.3 l 0.1,15.1 c 0,8.3 0.3,16.3 0.5,17.7 l 0.4,2.6 -15.2,0.6 c -22.4,0.8 -30.9,3.7 -39.7,13.2 -5.5,6 -8.7,13.1 -12.6,28 l -3.2,12 -10.4,0.6 c -8.2,0.5 -11.8,1.2 -16.9,3.4 -3.6,1.5 -7.7,2.9 -9.2,3.2 -1.9,0.4 -2.8,1.1 -2.8,2.4 0,1.5 -0.7,1.9 -3.5,1.9 -3.3,0 -10.37,8.57 -10.37,5.27 z"
         style="fill:#63a9f5;fill-opacity:1"
         id="path7" />
      <path
         d="m 850.42,462.088 -0.842,-76.829 c 0.282,0.265 20.191,-2.123 19.691,-2.123 -0.5,0 -1.269,16.677 -1.469,35.777 -0.6,44.6 -0.378,43.207 -0.378,43.207 z"
         style="fill:#63a9f5;fill-opacity:1"
         id="path8" />
      <path
         style="fill:#63a9f5;fill-opacity:1"
         d="m 767.486,418.073 c 0,0 22.434,3.076 53.385,-8.175 5.878,-2.137 -1.835,30.649 -1.835,30.649 l -56.048,-3.849 z"
         id="path9" />
    </g>
    <g
       fill="#7e8185"
       id="g14"
       style="fill:#23609f;fill-opacity:1">
      <path
         d="m 654.5,993.6 c -3.2,-1.4 -7.3,-3.9 -8.9,-5.6 -2.9,-2.9 -3,-3 -0.8,-3 1.4,0 2.2,0.6 2.2,1.6 0,1.4 0.8,1.5 4.7,0.9 9.1,-1.3 17,-4.4 19.7,-7.6 5.7,-6.7 5.5,1 4.1,-195.9 -0.3,-43.7 -0.6,-115.4 -0.5,-159.2 v -79.7 l -11.5,-0.3 c -10.3,-0.3 -20.457,-0.57 -20.657,-0.77 -0.2,-0.2 0.451,-1.946 0.851,-5.546 l 1.829,-6.161 L 667.5,533 h 21.4 l 2.531,11.087 c 0.3,1.7 -1.331,3.713 -0.931,13.913 0.3,10.2 1.2,37.2 2,60 1.3,36.8 3.3,103.2 5,164 0.3,11.3 1.6,46.6 2.8,78.5 1.2,31.9 2.2,69.5 2.2,83.5 v 25.5 l -3.3,6.7 c -6.1,12.5 -16.2,19 -30.2,19.5 -7.3,0.3 -9.3,0 -14.5,-2.1 z"
         style="fill:#23609f;fill-opacity:1"
         id="path10" />
      <path
         d="m 622.369,504.746 c 0,-1.5 13.331,-6.846 13.931,-7.146 11.6,-5.1 14.7,-5.9 24.6,-6.5 l 10.4,-0.6 3.2,-12 c 3.9,-14.9 7.1,-22 12.6,-28 9,-9.8 17.3,-12.4 41.2,-13.2 l 16.7,-0.6 v 7.9 c 0,10.1 -1.5,19.4 -3.5,21.3 -1.2,1.2 -4,1.6 -11.9,1.7 -16.7,0.2 -18.6,2.8 -18.6,25.4 v 14 h -43 -43 z"
         style="fill:#23609f;fill-opacity:1"
         id="path11" />
      <path
         d="m 860.787,476.715 c -0.5,-0.2 -21.915,1.591 -24.115,1.191 -2.1,-0.3 -0.39,-13.866 -1.69,-15.166 -2,-2.1 12.18,-1.89 12.18,-1.89 0,0 14.115,2.793 16.408,0 4.95,-6.028 3.492,-77.379 3.492,-77.379 l 9.583,-11.506 c 0,0 0.817,3.885 3.817,4.985 1.4,0.5 1.6,5.7 1.6,48.4 v 47.7 l -4.415,6.936 c -6.4,0.6 -15.06,-2.671 -16.86,-3.271 z"
         style="fill:#23609f;fill-opacity:1"
         id="path12" />
      <path
         d="m 624.6,467.8 c -0.3,-1.3 -0.6,-3.4 -0.6,-4.8 0,-3.9 -3.784,-8.206 -7.9,-10.9 -6.804,-4.453 -136.645,-5.847 -136.645,-5.847 0,0 21.045,-9.053 28.345,-11.653 22.1,-7.6 48.9,-11.6 77.4,-11.6 28.8,0 41.2,4 46.9,15.2 1.6,3.1 1.9,5.6 1.8,13.2 -0.1,5.2 0.2,9.9 0.6,10.6 0.9,1.5 -5.3,8 -7.6,8 -0.9,0 -1.9,-1 -2.3,-2.2 z"
         style="fill:#23609f;fill-opacity:1"
         id="path13" />
      <path
         style="fill:#23609f;fill-opacity:1"
         d="m 765.634,434.774 -0.962,9.381 48.351,11.546 c 0,0 7.165,-11.421 5.292,-17.079 -8.885,-26.847 -46.863,3.767 -52.681,-3.848 z"
         id="path14" />
    </g>
    <g
       id="g18">
      <g
         fill="#0f0f10"
         id="g17">
        <path
           d="m 653.2,1020.6 c -19.5,-4.8 -36.7,-21 -43.9,-41.3 -2.7,-7.6 -2.8,-8.4 -2.8,-28.3 0.1,-11.3 0.9,-40.1 1.8,-64 0.9,-23.9 3.3,-93.4 5.2,-154.5 1.9,-61 3.9,-120.9 4.5,-133 0.5,-12.1 1.2,-32.2 1.6,-44.8 l 0.6,-22.7 h -6.5 c -13.7,0 -14.2,-1.1 -14.2,-33.8 0,-23.5 -0.1,-24.3 -2,-24.7 -27.5,-6.3 -50.5,-8.3 -76.2,-6.6 -20.3,1.4 -33.2,3.6 -62.4,10.6 l -23,5.6 -2.5,-2 c -2.5,-2 -8.4,-8.9 -8.4,-9.9 0,-0.3 1.2,-2.6 2.6,-5.1 4.7,-8.1 13.3,-18.2 27.8,-32.6 24,-23.8 46.6,-39.9 77.1,-55 36.2,-17.9 68.4,-27 109,-30.6 29.7,-2.6 73.9,2 100.7,10.7 17,5.5 24.1,11.5 25.4,21.5 l 0.7,4.9 h 4.2 c 6.2,0 20.2,-2.8 26,-5.3 7.1,-3 14.7,-7.9 22.8,-14.9 10.9,-9.3 15.2,-11 32.1,-11.8 21.5,-1.1 35.6,0.7 42.9,5.4 1.3,0.9 3.7,4 5.3,6.9 l 2.9,5.2 V 425 c 0,62 0.2,60.6 -8,67.8 -6.3,5.6 -9.7,6.3 -30.2,6.9 -27.3,0.8 -33.2,-0.7 -45.3,-11.5 -12.1,-10.8 -22.7,-16.1 -37.7,-18.7 -12.2,-2.1 -15.3,-2 -15.3,0.6 0,3.8 -4.2,11.8 -7.6,14.4 -4.4,3.4 -8.5,5 -17.4,7.1 l -7.3,1.6 0.6,13.7 c 1,20.4 -1.2,24.2 -14.3,24.9 l -7,0.4 v 7.7 c 0,4.2 0.9,31 2,59.6 1.1,28.6 3.3,96.5 5,151 1.6,54.5 3.7,116.6 4.6,138 0.9,21.5 1.7,48.5 1.8,60 0.1,19.4 -0.1,21.6 -2.2,28.5 -5,16 -15.9,29.9 -29.3,37.3 -12.5,7 -30.3,9.5 -43.7,6.3 z M 679.4,990 c 7.2,-3.4 13.2,-9.4 16.8,-16.8 l 3.3,-6.7 V 944 c 0,-12.4 -1,-48.6 -2.2,-80.5 -1.2,-31.9 -2.5,-67.2 -2.8,-78.5 -1.7,-60.8 -3.7,-127.2 -5,-164 -0.8,-22.8 -1.7,-49.8 -2,-60 -0.4,-10.2 -0.8,-20 -1.1,-21.7 l -0.5,-3.3 h -18.3 -18.3 l -0.7,4.6 c -0.3,2.6 -0.6,11.7 -0.6,20.4 0,8.6 -0.7,33.6 -1.5,55.6 -2.8,74.4 -10.9,323.8 -10.9,335.9 0,15.2 1.9,20.8 10.3,29.6 9.9,10.6 22.2,13.4 33.5,7.9 z M 708,490 c 0,-22.7 2,-25.4 18.8,-25.5 7.7,-0.1 10.7,-0.5 11.8,-1.6 2.5,-2.6 3.2,-11.5 2.6,-35.8 l -0.5,-23.4 0.386,-19.298 L 736,382.8 c -24,-8.1 -43.2,-11.2 -70.5,-11.2 -30.6,-0.1 -56.6,4.1 -86,13.9 -26.8,8.8 -46.8,18.6 -70.3,34.2 -14.1,9.3 -29.744,26.552 -29.744,26.552 0,0 62.906,-17.313 122.544,-1.652 14.048,3.689 25.7,6.518 25.7,34.4 0,27.882 0.2,21.5 0.2,22.8 l 0.1,2.2 h 40 40 z m 142.926,-15.129 c 6.709,0 26.073,-0.306 26.073,-0.306 l -0.251,-98.62 c 0.002,-0.003 -27.971,-0.418 -27.971,-0.418 0,0 -5.613,0.583 -5.789,5.153 L 843,471.156 c 0,3.832 3.956,3.715 7.926,3.715 z M 815.989,450.86 815.878,400.948 C 798.535,413.805 773,410.572 773,410.572 v 30.92 c 0,0 26.653,-5.205 42.989,9.368 z"
           style="fill:#10375c;fill-opacity:1"
           id="path15" />
        <path
           d="m 564.5,945.2 c -27.7,-11.6 -57.2,-33.3 -79.2,-58.4 -32.3,-36.7 -52,-79 -59.5,-127.8 -0.8,-5.5 -1.3,-18.1 -1.3,-35.5 0.1,-29 0.9,-36.5 7.1,-61 14.5,-57.3 49.2,-106 99.2,-139.5 14.4,-9.7 37.6,-22 38.9,-20.6 0.9,0.8 0.7,21.9 -0.2,24.5 -0.3,0.9 -4.9,4.1 -10.1,7.1 -15.1,8.7 -52.1,37.6 -51.2,40 0.3,0.9 33.2,22.8 35.4,23.7 0.6,0.2 2.6,-2.2 4.4,-5.4 4.2,-7.5 15.7,-24.6 23.3,-34.8 3.3,-4.4 6.1,-8.1 6.2,-8.3 0.2,-0.2 2.8,1.4 5.9,3.5 l 5.7,3.8 -0.4,8.1 c -0.5,8 -0.6,8.2 -5.3,14 -5.2,6.4 -20.4,29.2 -20.4,30.6 0,0.5 5.3,4.4 11.9,8.6 l 11.8,7.7 -0.4,9 c -0.2,4.9 -0.6,10 -0.9,11.3 l -0.5,2.3 -4.7,-2.7 c -2.6,-1.5 -9.6,-6 -15.7,-10.1 -12.8,-8.5 -11.1,-9.2 -16.8,7.2 -4.8,13.9 -12.7,48.8 -11.4,50.2 0.2,0.2 10.9,1.7 23.8,3.4 12.9,1.8 23.5,3.3 23.7,3.4 0.4,0.4 -1.5,19.5 -2,20 -0.5,0.5 -23.2,-2.3 -38.5,-4.8 l -8.3,-1.4 v 8.6 c 0,4.8 0.5,12.5 1.1,17.1 1,8.4 5.5,33.9 6.5,37.2 0.5,1.5 2.2,1.6 19.6,1.1 l 19.1,-0.6 -0.6,9.7 c -0.3,5.4 -0.8,10.1 -1.2,10.4 -0.3,0.4 -6.9,0.8 -14.6,1 -9.7,0.3 -13.9,0.8 -13.9,1.6 0,1.9 14.4,30.5 19.9,39.5 2.8,4.6 5.5,10 6.1,12 1.2,4.5 1.3,27.5 0.1,31.8 -0.5,1.7 -5.7,8.7 -11.5,15.5 -5.8,6.7 -10.6,12.6 -10.6,13 0,0.5 4.7,3.2 10.5,6 l 10.5,5.3 v 11.6 c 0,11.3 -0.5,14.9 -1.9,14.9 -0.3,0 -4.6,-1.8 -9.6,-3.8 z m -17.9,-56.9 c 4.9,-6 10.8,-12.9 13.2,-15.5 l 4.3,-4.7 -5.9,-8.8 c -12.7,-19 -23.4,-39.1 -28.4,-53.5 l -2.3,-6.8 -28,0.1 c -15.4,0 -30.1,0.4 -32.7,0.7 l -4.8,0.7 4.9,11.2 c 6.1,14.3 15.4,30.6 23.9,42 9.7,12.9 42.6,45.3 46.1,45.3 0.5,0 4.8,-4.8 9.7,-10.7 z m -26.7,-111 c 0.3,-0.2 -0.6,-6.1 -1.9,-13.1 -3.5,-18.9 -3.8,-21.3 -4.6,-37.9 -0.4,-8.4 -1,-15.3 -1.4,-15.3 -0.4,0 -13.1,-1.8 -28.1,-4 -15.1,-2.2 -29.1,-4 -31.1,-4 H 449 v 14.3 c 0,7.8 0.5,19.4 1,25.7 1,11.6 3.9,34 4.6,35.1 0.4,0.7 64.6,-0.1 65.3,-0.8 z m -5.1,-90.8 c 0.2,-1.6 1.6,-9.6 3.3,-17.8 3.3,-16.5 8.4,-33.5 13.5,-44.6 1.9,-4.1 3.3,-7.5 3.2,-7.6 -4.1,-3.6 -40.9,-25.6 -41.8,-25 -1.4,0.8 -13.2,20.1 -18.8,30.5 -9.1,17 -18.5,42.3 -20.7,55.6 l -0.6,4.2 7.3,1.2 c 11,1.9 50,6.8 52.3,6.7 1.4,-0.2 2.1,-1 2.3,-3.2 z"
           style="fill:#eb8317;fill-opacity:1"
           id="path16" />
        <path
           d="m 759,935.8 v -13.3 l 9.7,-5 c 5.3,-2.8 9.8,-5.6 10,-6.2 0.2,-0.6 -4.6,-7 -10.8,-14.3 L 756.8,883.7 756.3,872 c -0.8,-16.8 0.5,-22.3 8.4,-36.2 6.6,-11.6 16.6,-31.6 17.8,-35.5 l 0.6,-2.3 H 768.6 754 v -9.9 -9.9 l 9.6,-0.7 c 5.2,-0.4 13.5,-0.4 18.3,-0.1 l 8.8,0.7 2.1,-10.3 c 1.2,-5.7 2.6,-12.9 3.1,-16.1 1.4,-7.7 3.5,-36.6 2.8,-37.4 -0.3,-0.3 -10.8,0.9 -23.3,2.6 -16.8,2.4 -22.9,2.9 -23.4,2 -0.8,-1.2 -2.4,-18.9 -1.8,-19.3 0.2,-0.1 10.9,-1.7 23.8,-3.5 12.9,-1.8 23.6,-3.4 23.8,-3.5 0.3,-0.4 -4.5,-24.6 -6.4,-32.1 -2.1,-8 -9.4,-30.8 -10.3,-31.7 -0.3,-0.4 -3.5,1.3 -7.1,3.8 -6.9,4.8 -24,14.7 -24.5,14.2 -0.1,-0.2 -0.6,-5.1 -1,-11 l -0.7,-10.8 10.9,-7 c 5.9,-3.8 11.2,-7.1 11.8,-7.3 2,-0.7 -9.8,-20.2 -19.1,-31.7 l -5.4,-6.7 v -7.5 -7.6 l 5.4,-4.1 5.5,-4.1 4.5,6.3 c 2.4,3.5 9.8,14.5 16.3,24.4 l 11.9,18.1 18.2,-11.7 c 10,-6.4 18.2,-11.9 18.2,-12.2 0,-1.2 -19.4,-18.1 -28.5,-24.9 -7.5,-5.5 -17.3,-11.9 -30.2,-19.7 -2.2,-1.3 -2.3,-2 -2.2,-12.6 0.1,-16.6 -0.7,-16.1 13.5,-8.7 52.2,27 92.3,71.1 113.7,125 6.2,15.5 11.3,33.5 14.4,51 2.3,12.9 2.6,17.3 2.7,39 0.1,26.5 -1,36.8 -6.1,58.5 -13.8,58.6 -50.6,111.4 -101.3,145 -12.7,8.5 -39.3,22.5 -42.6,22.5 -0.2,0 -0.4,-6 -0.4,-13.2 z m 43.9,-41 c 15.4,-11.8 33,-31.5 46.8,-52.5 7.1,-10.7 19.7,-34.2 22.1,-41 l 1.1,-3.3 h -33.2 -33.2 l -2.4,6.6 c -4,11.2 -18.5,39.3 -26.5,51.3 l -7.5,11.4 4.7,5.5 c 16,18.6 21.2,24.8 21.2,25.4 0,1.5 1.3,0.8 6.9,-3.4 z m 76.5,-120.5 c 1.7,-8.2 4.7,-30.6 5.7,-43 1,-13.2 0.3,-26.2 -1.5,-28.1 -0.3,-0.3 -4.3,0 -8.8,0.7 -4.6,0.6 -17.1,2.3 -27.8,3.6 -10.7,1.4 -21,2.8 -22.7,3 l -3.3,0.6 v 6.3 c 0,11.6 -2.1,32 -4.5,44.6 -1.4,6.9 -2.5,13.1 -2.5,13.8 0,0.9 7.1,1.2 32.4,1.2 h 32.4 z m -26.9,-88.9 c 14.9,-2 27.3,-3.9 27.8,-4.3 0.9,-0.9 -4.9,-22.2 -9.2,-34.1 -6.7,-18.2 -26.3,-54 -30.5,-55.6 -0.8,-0.3 -5.4,2.1 -10.3,5.3 -4.8,3.3 -13.1,8.5 -18.3,11.8 -5.2,3.2 -10.1,6.4 -10.8,7 -1.2,1.1 -0.6,3.4 3.3,13.6 5.4,14.2 11.7,38.2 13.6,51.7 l 1.3,9.2 3,-0.5 c 1.7,-0.3 15.3,-2.1 30.1,-4.1 z"
           style="fill:#eb8317;fill-opacity:1"
           id="path17" />
      </g>
    </g>
    <g
       id="text19"
       style="font-size:200px;white-space:pre;shape-padding:1.7754;fill:#10375c;fill-opacity:1;stroke-width:1.891"
       aria-label="forgeweb"
       transform="matrix(2.7875699,0,0,2.7875699,20.901211,-1129.8755)">
      <path
         style="font-weight:900;font-family:Montserrat;-inkscape-font-specification:'Montserrat Heavy';fill:#10375c;fill-opacity:1"
         d="m 417.43086,612.8398 c 0,-8.8 4.4,-12.6 10.8,-12.6 3.6,0 7.2,1.2 10.2,2.6 l 10.8,-31.4 c -6.6,-3.6 -17.2,-5.4 -26.8,-5.4 -31.2,0 -48.8,18.2 -48.8,46.4 v 0.6 h -15 v 33 h 15 v 70.4 h 45.2 v -70.4 h 22.4 v -33 h -23.8 z m 93.20029,105.6 c 37.2,0 63.6,-23.6 63.6,-56.8 0,-33.2 -26.4,-56.6 -63.6,-56.6 -37,0 -63.6,23.4 -63.6,56.6 0,33.2 26.6,56.8 63.6,56.8 z m 0,-35.2 c -10,0 -17.8,-7.4 -17.8,-21.6 0,-14.2 7.8,-21.4 17.8,-21.4 10,0 17.8,7.2 17.8,21.4 0,14.2 -7.8,21.6 -17.8,21.6 z m 120.7999,-76.2 h -43 v 109.4 h 45.2 v -48.6 c 0,-17.4 9.6,-23.6 23.2,-23.6 3.2,0 6,0.2 10,0.8 v -40 c -15.2,0 -27.4,4.6 -35.4,13.8 z m 126.40005,12.4 c -6.8,-9.8 -17.4,-14.4 -32.4,-14.4 -27.8,0 -52.6,20.2 -52.6,52.6 0,32.4 24.8,52.8 52.6,52.8 13.4,0 23.4,-3.8 30.2,-11.6 v 2 c 0,14.6 -7.4,22.8 -26,22.8 -11.8,0 -26.4,-4.2 -35,-10.8 l -15.2,30.8 c 13.6,9 33.2,13.6 54.8,13.6 41.8,0 66.6,-20.2 66.6,-62.6 v -87.6 h -43 z m -20.4,55.8 c -10.6,0 -18.8,-7 -18.8,-17.6 0,-10.6 8.2,-17.4 18.8,-17.4 10.6,0 18.6,6.8 18.6,17.4 0,10.6 -8,17.6 -18.6,17.6 z m 199.80008,-13.6 c 0,-37 -27.8,-56.6 -60.2,-56.6 -35.4,0 -62,23.4 -62,56.6 0,32.6 26,56.8 66.2,56.8 21.8,0 37.2,-6 47.8,-17.6 l -23.6,-23.8 c -7.2,5.4 -12.8,8 -22.8,8 -11.2,0 -18.8,-4.4 -22,-12.8 h 76 c 0.2,-3.2 0.6,-7.4 0.6,-10.6 z m -59.8,-25.8 c 9.2,0 15.8,5.4 17.6,14.6 h -35.2 c 1.8,-9.2 8.2,-14.6 17.6,-14.6 z"
         id="path22" />
      <path
         style="font-weight:300;font-family:Montserrat;-inkscape-font-specification:'Montserrat Light';fill:#10375c;fill-opacity:1"
         d="m 1067.4312,705.0398 -35.4,-93 h -8.6 l -35.60005,93.2 -34.8,-93.2 h -9.6 l 39.6,104.4 h 9.2 l 35.40005,-90.6 35.2,90.6 h 9.4 l 39.6,-104.4 h -9.2 z m 153,-41.2 c 0,-31 -21.2,-52.6 -49.8,-52.6 -28.6,0 -50,22 -50,53 0,31 22.2,53 53.8,53 15.8,0 30.2,-5.8 39.4,-17 l -5.8,-6.6 c -8,9.8 -20.2,14.6 -33.4,14.6 -25,0 -43.2,-16.8 -44.2,-41.6 h 89.8 c 0,-1 0.2,-2 0.2,-2.8 z m -49.8,-43.8 c 22.2,0 38.6,16.2 40,38.8 h -80 c 1.6,-22.8 17.8,-38.8 40,-38.8 z m 133.2,-8.8 c -18.4,0 -34,9 -42.4,24.6 v -67.8 h -10 v 148.4 h 9.6 v -24.6 c 8.2,16 24,25.4 42.8,25.4 29.4,0 51.6,-21.8 51.6,-53 0,-31.4 -22.2,-53 -51.6,-53 z m -0.6,97 c -24,0 -42,-17.8 -42,-44 0,-26.2 18,-44 42,-44 24,0 42.2,17.8 42.2,44 0,26.2 -18.2,44 -42.2,44 z"
         id="path23" />
    </g>
  </g>
</svg>
